<?xml version="1.0" standalone="no"?>
<!DOCTYPE svg PUBLIC "-//W3C//DTD SVG 20010904//EN"
 "http://www.w3.org/TR/2001/REC-SVG-20010904/DTD/svg10.dtd">
<svg version="1.0" xmlns="http://www.w3.org/2000/svg"
 width="512.000000pt" height="512.000000pt" viewBox="0 0 512.000000 512.000000"
 preserveAspectRatio="xMidYMid meet">
<metadata>
Created by potrace 1.14, written by Peter Selinger 2001-2017
</metadata>
<g transform="translate(0.000000,512.000000) scale(0.100000,-0.100000)"
fill="#000000" stroke="none">
<path d="M751 5077 c-81 -26 -159 -95 -198 -175 -28 -57 -28 -58 -31 -289 l-3
-231 -241 0 c-226 0 -242 -2 -260 -20 -26 -25 -16 -79 15 -91 12 -5 127 -8
255 -7 l232 1 0 -527 0 -528 -235 0 c-200 0 -239 -2 -260 -16 -31 -20 -33 -56
-5 -84 19 -19 33 -20 260 -20 l240 0 0 -528 0 -528 -240 0 c-218 -1 -242 -2
-260 -19 -24 -22 -26 -58 -4 -79 20 -20 1 -19 269 -20 l230 -2 3 -527 c2 -418
0 -527 -10 -528 -7 0 -115 -1 -240 -1 -209 0 -228 -2 -247 -20 -26 -23 -27
-49 -3 -78 17 -21 22 -22 259 -22 l241 1 4 -232 c3 -224 4 -234 28 -282 36
-72 117 -149 187 -176 l58 -23 1700 0 c935 -1 1727 3 1760 8 132 18 233 105
277 236 13 39 15 172 16 990 0 520 1 961 1 980 l1 35 193 1 c170 1 198 4 237
21 94 42 131 102 138 223 6 115 -8 161 -66 219 -65 64 -94 71 -316 71 l-186 0
-1 33 c0 17 -1 75 -2 129 l-2 96 205 4 c189 3 208 5 247 26 80 42 119 117 122
234 3 97 -12 147 -60 198 -62 67 -87 73 -309 76 -107 1 -197 3 -200 3 -4 1 -4
157 0 246 0 7 61 10 168 10 198 0 255 8 302 43 70 52 96 108 99 214 3 94 -12
146 -55 197 -61 71 -92 79 -314 80 -107 1 -196 4 -198 6 -2 2 -5 97 -7 212 -1
114 -7 222 -12 239 -31 94 -112 181 -200 215 l-58 22 -1730 3 -1730 2 -64 -21z
m414 -596 c79 -36 114 -104 101 -195 -16 -107 -146 -167 -250 -116 -36 17 -92
78 -82 88 2 1 44 4 92 5 49 1 95 6 102 11 34 21 30 87 -7 101 -9 4 -55 6 -103
6 -49 0 -88 4 -88 8 0 5 12 24 27 42 31 37 95 69 138 69 17 0 48 -9 70 -19z
m27 -1188 c73 -43 99 -150 55 -228 -61 -108 -193 -124 -279 -33 -21 21 -38 43
-38 48 0 6 41 10 94 10 90 0 96 1 115 26 21 26 19 46 -7 77 -12 14 -32 17
-109 17 l-95 0 19 32 c46 80 157 103 245 51z m-27 -1162 c70 -32 105 -86 105
-162 0 -39 -20 -91 -45 -115 -80 -80 -219 -70 -275 20 -11 19 -20 35 -20 37 0
2 42 4 94 4 106 0 126 10 126 60 0 49 -18 58 -125 58 -52 1 -95 4 -95 8 0 18
58 74 95 90 51 23 89 23 140 0z m-12 -1167 c75 -23 122 -98 115 -181 -9 -111
-116 -185 -221 -153 -39 11 -117 76 -117 97 0 6 24 10 53 11 131 1 136 2 155
22 24 25 18 66 -12 85 -13 9 -48 14 -96 14 -109 -1 -103 -3 -85 30 34 68 126
101 208 75z"/>
</g>
</svg>
